<svg xmlns="http://www.w3.org/2000/svg" viewBox="0 0 50.11 35.18">
  <defs>
    <style>
      .cls-1 {
        fill: #fff;
      }
    </style>
  </defs>
  <g id="Layer_2" data-name="Layer 2">
    <g id="GallerySingle">
      <g>
        <path class="cls-1" d="M49.21,3.26H7.07a.6.6,0,0,1-.59-.46L6,.76A1,1,0,0,0,5,0H.73A.71.71,0,0,0,0,.69v.4a.79.79,0,0,0,.82.77H3.56a.82.82,0,0,1,.82.62l5,22.14a1.11,1.11,0,0,0,1.09.83h32.2a.9.9,0,0,0,.92-.87h0a1,1,0,0,0-1.06-1H11.83a.79.79,0,0,1-.78-.6l-.32-1.4a.54.54,0,0,1,.55-.64H43.2a1.33,1.33,0,0,0,1.27-.85L50.06,4.37A.85.85,0,0,0,49.21,3.26ZM10,18.36,7.14,5.71a.5.5,0,0,1,.51-.6H46.88a.56.56,0,0,1,.56.74L43,18.46a1,1,0,0,1-.93.63H11A1,1,0,0,1,10,18.36Z"/>
        <ellipse class="cls-1" cx="15.12" cy="31.32" rx="3.86" ry="3.84" transform="translate(-17.72 19.86) rotate(-45)"/>
        <ellipse class="cls-1" cx="38.96" cy="31.32" rx="3.86" ry="3.84" transform="translate(-10.74 36.72) rotate(-45)"/>
      </g>
    </g>
  </g>
</svg>
